<?xml version="1.0" standalone="no"?><!DOCTYPE svg PUBLIC "-//W3C//DTD SVG 1.1//EN" "http://www.w3.org/Graphics/SVG/1.1/DTD/svg11.dtd"><svg t="1676776837181" class="icon" viewBox="0 0 1024 1024" version="1.1" xmlns="http://www.w3.org/2000/svg" p-id="2474" xmlns:xlink="http://www.w3.org/1999/xlink" width="200" height="200"><path d="M661.2 631.28v184.56c0 36.96-3.12 73.92-50.48 78.24-19.12 1.76-39.2 0-58.4 0H318.24c-53.44 0-133.52 16.32-137.84-58.08-4-69.44 0-140.16 0-209.68 0-23.2-36-23.2-36 0 0 70.32-1.76 140.88 0 211.28 1.04 41.44 21.44 78.88 64.24 89.68 21.04 5.28 44.96 2.8 66.4 2.8h264.88c66.64 0 151.76 5.76 157.28-85.12 4.24-70.72 0-142.8 0-213.68 0-23.2-36-23.2-36 0zM424.8 584.64H196.56c-24.64 0-48.96-11.12-64.96-29.76-13.68-15.92-19.6-35.36-16.72-54.8 5.28-35.04 24.24-58.8 32.32-68.96 0.8-1.04 1.52-1.92 2.08-2.64 0.56-0.72 54.72-71.2 102.4-71.2h169.44v36H251.6c-21.92 0-61.92 40.96-73.44 56.56-0.72 0.96-1.68 2.16-2.8 3.68-6.8 8.56-21.04 26.4-24.88 51.92-1.68 11.44 3.6 20.4 8.4 25.92 9.12 10.64 23.6 17.2 37.68 17.2H424.8v36.08z" p-id="2475"></path><path d="M634.4 584.64H406.16v-36H634.4c14.08 0 28.56-6.64 37.68-17.2 4.8-5.52 10.08-14.56 8.4-26-3.84-25.52-18-43.36-24.88-51.92-1.2-1.44-2.16-2.64-2.88-3.68-11.52-15.6-51.52-56.56-73.44-56.56H410v-36h169.44c47.68 0 101.84 70.48 102.4 71.2 0.48 0.72 1.2 1.52 2 2.64 8.08 10.16 27.04 33.92 32.32 68.96 2.96 19.44-3.04 38.88-16.72 54.8-16.08 18.72-40.32 29.76-65.04 29.76z" p-id="2476"></path><path d="M657.76 248c-129.28 0-233.6 104.72-233.6 233.6 0 38 15.76 86.64 44.96 142.32 20.88 39.84 47.76 82 79.68 126.08 27.84 38.48 57.44 75.52 87.6 110.32 7.52 8.88 14.72 16.96 21.52 24.48 6.56-7.04 13.44-14.8 21.12-23.12 29.68-33.36 59.76-69.52 87.6-107.04 39.36-52.4 70.88-103.36 92.72-151.12 20.88-45.92 32-86.64 32-121.92 0-129.28-104.32-233.6-233.6-233.6z" fill="#FFFFFF" p-id="2477"></path><path d="M657.68 914.32l-14.56-16.16c-6.48-7.12-14-15.52-22-24.96-31.68-36.56-61.52-74.08-88.56-111.52C499.36 716 472 672.72 451.36 633.2c-31.36-59.68-47.2-110.72-47.2-151.6 0-139.84 113.76-253.6 253.6-253.6s253.6 113.76 253.6 253.6c0 37.6-11.04 80.16-33.76 130.16-22.08 48.32-54 100.4-94.88 154.8-25.36 34.24-55.2 70.72-88.64 108.32-3.44 3.76-6.56 7.2-9.6 10.48-4.16 4.56-8.08 8.88-11.84 12.96l-14.96 16z m0.08-646.32c-117.76 0-213.6 95.84-213.6 213.6 0 33.84 14.72 79.84 42.64 132.96 19.84 37.84 46.08 79.44 78.16 123.6 26.4 36.48 55.44 73.12 86.56 108.96 2.24 2.64 4.48 5.2 6.64 7.68 2-2.24 4.08-4.48 6.16-6.8 32.4-36.48 61.52-72 86.24-105.44 39.28-52.24 69.68-101.76 90.56-147.52 20-44 30.16-82.24 30.16-113.6 0.08-117.6-95.76-213.44-213.52-213.44z" p-id="2478"></path><path d="M773.6 481.6c0-64.4-52.4-116.8-116.8-116.8s-116.8 52.4-116.8 116.8 52.4 116.8 116.8 116.8 116.8-52.4 116.8-116.8z" p-id="2479"></path><path d="M571.52 481.36c0-46.88 38.4-85.28 85.28-85.28s85.28 38.4 85.28 85.28-38.4 85.28-85.28 85.28-85.28-38.32-85.28-85.28z" fill="#FF826E" p-id="2480"></path></svg>